<?xml version="1.0" encoding="utf-8"?>
<!-- Generator: Adobe Illustrator 25.2.0, SVG Export Plug-In . SVG Version: 6.00 Build 0)  -->
<svg version="1.1" id="Layer_1" xmlns="http://www.w3.org/2000/svg" xmlns:xlink="http://www.w3.org/1999/xlink" x="0px" y="0px"
	 viewBox="0 0 398.89 77.94" style="enable-background:new 0 0 398.89 77.94;" xml:space="preserve">
<style type="text/css">
	.st0{fill:#00B2E3;}
	.st1{fill:#FFFFFF;}
	.st2{fill:#54565A;}
</style>
<polygon class="st0" points="201.42,77.45 0.86,77.45 31.04,0.44 231.6,0.44 "/>
<g>
	<path class="st1" d="M56.19,57.13H41.12V21.14h14.46c7.03,0,11.12,3.94,11.12,10.11c0,3.99-2.63,6.57-4.45,7.43
		c2.17,1.01,4.95,3.29,4.95,8.09C67.21,53.5,62.61,57.13,56.19,57.13z M55.02,27.41h-6.88v8.29h6.88c2.98,0,4.65-1.67,4.65-4.15
		S58.01,27.41,55.02,27.41z M55.48,42.02h-7.33v8.85h7.33c3.18,0,4.7-2.02,4.7-4.45C60.18,43.99,58.66,42.02,55.48,42.02z"/>
	<path class="st1" d="M84.49,57.13V21.14h7.03v29.72h16.33v6.27H84.49z"/>
	<path class="st1" d="M135.75,57.44c-7.38,0-13.24-5-13.24-12.64V21.14h7.03v23.41c0,4.15,2.43,6.62,6.22,6.62
		c3.79,0,6.27-2.48,6.27-6.62V21.14h6.98V44.8C148.99,52.43,143.13,57.44,135.75,57.44z"/>
	<path class="st1" d="M166.93,57.13V21.14h23.71v6.27h-16.68v8.44h14.21v6.27h-14.21v8.75h16.68v6.27H166.93z"/>
</g>
<g>
	<path class="st2" d="M256.32,43.59h-6.93v13.55h-7.03V21.14h13.95c7.43,0,11.88,5.11,11.88,11.22
		C268.2,38.48,263.75,43.59,256.32,43.59z M255.97,27.41h-6.57v9.86h6.57c3.18,0,5.21-1.97,5.21-4.9S259.15,27.41,255.97,27.41z"/>
	<path class="st2" d="M306.01,53.5c-2.53,2.53-5.61,3.94-9.71,3.94s-7.23-1.42-9.76-3.94c-3.64-3.64-3.54-8.14-3.54-14.36
		s-0.1-10.72,3.54-14.36c2.53-2.53,5.66-3.94,9.76-3.94s7.18,1.42,9.71,3.94c3.64,3.64,3.59,8.14,3.59,14.36
		S309.65,49.86,306.01,53.5z M300.8,29.03c-1.01-1.16-2.58-1.92-4.5-1.92c-1.92,0-3.54,0.76-4.55,1.92
		c-1.37,1.52-1.72,3.18-1.72,10.11s0.35,8.59,1.72,10.11c1.01,1.16,2.63,1.92,4.55,1.92c1.92,0,3.49-0.76,4.5-1.92
		c1.36-1.52,1.77-3.18,1.77-10.11S302.17,30.54,300.8,29.03z"/>
	<path class="st2" d="M348.17,57.13l-14.26-22.09v22.09h-7.03V21.14h6.27l14.26,22.04V21.14h7.03v35.99H348.17z"/>
	<path class="st2" d="M386.68,42.37v14.76h-6.98V42.37l-10.82-21.23h7.63l6.72,14.51l6.62-14.51h7.63L386.68,42.37z"/>
</g>
</svg>
