<svg id="SecondaryLogo" xmlns="http://www.w3.org/2000/svg" viewBox="0 0 396.64 77.01"><defs><style>.cls-1{fill:#00b2e3;}.cls-2{fill:#fff;}</style></defs><polygon class="cls-1" points="200.56 77.01 0 77.01 30.17 0 230.73 0 200.56 77.01"/><path class="cls-2" d="M56.19,57.52H41.12v-36H55.58c7,0,11.12,3.94,11.12,10.11a8.33,8.33,0,0,1-4.45,7.43,8.36,8.36,0,0,1,5,8.09C67.21,53.88,62.61,57.52,56.19,57.52ZM55,27.8H48.15v8.29H55c3,0,4.65-1.67,4.65-4.15S58,27.8,55,27.8Zm.46,14.61H48.15v8.85h7.33c3.18,0,4.7-2,4.7-4.45S58.66,42.41,55.48,42.41Z" transform="translate(-0.86 -0.83)"/><path class="cls-2" d="M84.49,57.52v-36h7V51.26h16.33v6.26Z" transform="translate(-0.86 -0.83)"/><path class="cls-2" d="M135.75,57.83c-7.38,0-13.25-5-13.25-12.64V21.53h7V44.94c0,4.14,2.43,6.62,6.22,6.62S142,49.08,142,44.94V21.53h7V45.19C149,52.82,143.13,57.83,135.75,57.83Z" transform="translate(-0.86 -0.83)"/><path class="cls-2" d="M166.93,57.52v-36h23.71V27.8H174v8.44h14.2v6.27H174v8.75h16.68v6.26Z" transform="translate(-0.86 -0.83)"/><path class="cls-2" d="M256.32,44h-6.93V57.52h-7v-36h13.95c7.43,0,11.88,5.11,11.88,11.22S263.75,44,256.32,44ZM256,27.8h-6.58v9.86H256c3.18,0,5.2-2,5.2-4.91S259.15,27.8,256,27.8Z" transform="translate(-0.86 -0.83)"/><path class="cls-2" d="M306,53.88a14,14,0,0,1-19.46,0c-3.64-3.64-3.54-8.14-3.54-14.35s-.1-10.72,3.54-14.36a14,14,0,0,1,19.46,0c3.64,3.64,3.59,8.14,3.59,14.36S309.65,50.24,306,53.88ZM300.8,29.42a5.82,5.82,0,0,0-4.5-1.92,5.93,5.93,0,0,0-4.55,1.92C290.39,30.93,290,32.6,290,39.53s.36,8.59,1.72,10.11a6,6,0,0,0,4.55,1.92,5.85,5.85,0,0,0,4.5-1.92c1.37-1.52,1.77-3.19,1.77-10.11S302.17,30.93,300.8,29.42Z" transform="translate(-0.86 -0.83)"/><path class="cls-2" d="M348.17,57.52,333.91,35.43V57.52h-7v-36h6.27l14.26,22v-22h7v36Z" transform="translate(-0.86 -0.83)"/><path class="cls-2" d="M386.68,42.76V57.52h-7V42.76L368.89,21.53h7.63L383.24,36l6.63-14.51h7.63Z" transform="translate(-0.86 -0.83)"/></svg>