<svg id="Text" xmlns="http://www.w3.org/2000/svg" viewBox="0 0 1282.94 57.76"><defs><style>.cls-1{fill:#fff;}</style></defs><path class="cls-1" d="M13.48,108.84H37.24v7.6H21.48v16.48H35.4v7.2H21.48v17.12h16v7.6h-24Z" transform="translate(-13.48 -108.04)"/><path class="cls-1" d="M72,164.84h-7l-11.84-56h8.8l6.48,38.72h.32l6.72-38.72h8.4Z" transform="translate(-13.48 -108.04)"/><path class="cls-1" d="M101.4,108.84h23.76v7.6H109.4v16.48h13.92v7.2H109.4v17.12h16v7.6h-24Z" transform="translate(-13.48 -108.04)"/><path class="cls-1" d="M155.48,108.84c4.08,0,10-.24,13.76,4.4,1.84,2.24,3,5.6,3,9.76v4.24a14,14,0,0,1-3,8.88A11.13,11.13,0,0,1,165,139l8.8,25.84h-8.32l-7.76-24.16H153v24.16h-8v-56ZM153,133.48h4.56a6.77,6.77,0,0,0,5-1.84c1.6-1.52,1.68-2.88,1.68-5v-4a7.46,7.46,0,0,0-1.84-5.12c-1.6-1.6-3.52-1.44-5.2-1.44H153Z" transform="translate(-13.48 -108.04)"/><path class="cls-1" d="M206,141.24v23.6h-8V141l-11.76-32.16h8.8l7,22.24h.48l6.8-22.24h8.48Z" transform="translate(-13.48 -108.04)"/><path class="cls-1" d="M266,108.84H289.8v7.6H274v16.48H288v7.2H274v17.12h16v7.6H266Z" transform="translate(-13.48 -108.04)"/><path class="cls-1" d="M315.8,108.84l6.4,17.6,6.48-17.6h8.8l-11,26.4,12.16,29.6h-8.48L322.2,144.6l-7.37,20.24H306l12-29.6-10.73-26.4Z" transform="translate(-13.48 -108.04)"/><path class="cls-1" d="M356.59,108.84h11.92c3.45,0,7.68.16,11.2,3.68,3.69,3.76,4.09,8.64,4.09,12.8v1.6c0,3.12-.32,7.76-3.45,11.36-3.27,3.76-7.6,4.4-11,4.4h-4.72v22.16h-8Zm8,26.64h4.33a6.87,6.87,0,0,0,5.35-2.08c1.69-1.84,1.52-3.76,1.52-5.76V124c0-1.92.09-4.64-2.16-6.48-1.84-1.52-4.08-1.44-6.23-1.44h-2.81Z" transform="translate(-13.48 -108.04)"/><path class="cls-1" d="M403,108.84h23.76v7.6H411v16.48h13.92v7.2H411v17.12h16v7.6H403Z" transform="translate(-13.48 -108.04)"/><path class="cls-1" d="M457.07,108.84c4.08,0,10-.24,13.76,4.4,1.84,2.24,3,5.6,3,9.76v4.24a14,14,0,0,1-3,8.88,11.13,11.13,0,0,1-4.24,2.88l8.8,25.84h-8.32l-7.76-24.16h-4.72v24.16h-8v-56Zm-2.48,24.64h4.56a6.77,6.77,0,0,0,5-1.84c1.6-1.52,1.68-2.88,1.68-5v-4a7.46,7.46,0,0,0-1.84-5.12c-1.6-1.6-3.52-1.44-5.2-1.44h-4.16Z" transform="translate(-13.48 -108.04)"/><path class="cls-1" d="M502.19,108.84v56h-8v-56Z" transform="translate(-13.48 -108.04)"/><path class="cls-1" d="M523.79,108.84h23.76v7.6H531.79v16.48h13.92v7.2H531.79v17.12h16v7.6h-24Z" transform="translate(-13.48 -108.04)"/><path class="cls-1" d="M575.39,108.84,588.75,144v-35.2h8v56h-8l-13.36-35.2v35.2h-8v-56Z" transform="translate(-13.48 -108.04)"/><path class="cls-1" d="M636.83,121.56a7,7,0,0,0-1-3.68,4.86,4.86,0,0,0-4.16-2,5.13,5.13,0,0,0-4.16,1.84c-1.28,1.6-1.36,3.6-1.36,5.52v27.6c0,1.84,0,3.52,1,5a4.84,4.84,0,0,0,4.08,2,5.58,5.58,0,0,0,4.48-1.92,7.51,7.51,0,0,0,1.12-4.56v-2h8v2.32c0,5.52-1.92,8.72-3.36,10.24-1.68,1.84-5,3.76-10.48,3.76-5.28,0-8.32-2.16-10.08-4.24-2.88-3.36-2.8-7.2-2.8-10.08v-29c0-3.68.48-7.84,4.08-11a14.21,14.21,0,0,1,9.12-3.28,14.64,14.64,0,0,1,9.68,3.6,13.31,13.31,0,0,1,3.6,9.28v3.84h-7.76Z" transform="translate(-13.48 -108.04)"/><path class="cls-1" d="M665.23,108.84H689v7.6H673.23v16.48h13.92v7.2H673.23v17.12h16v7.6h-24Z" transform="translate(-13.48 -108.04)"/><path class="cls-1" d="M764.11,108.84v7.6h-9.92v48.4h-8v-48.4h-9.92v-7.6Z" transform="translate(-13.48 -108.04)"/><path class="cls-1" d="M782.51,108.84h23.76v7.6H790.51v16.48h13.92v7.2H790.51v17.12h16v7.6h-24Z" transform="translate(-13.48 -108.04)"/><path class="cls-1" d="M834.11,108.84v48.4h17v7.6h-25v-56Z" transform="translate(-13.48 -108.04)"/><path class="cls-1" d="M878.67,108.84v48.4h17v7.6h-25v-56Z" transform="translate(-13.48 -108.04)"/><path class="cls-1" d="M930.51,122.84a8.38,8.38,0,0,0-1.36-5.12,5.06,5.06,0,0,0-4.24-1.84A5.34,5.34,0,0,0,921,117.4c-1.52,1.6-1.68,3.84-1.68,5.68,0,1.52.24,4.32,1.28,5.84a7.38,7.38,0,0,0,3.68,2.48l4.88,1.76c2.4.88,5.2,1.92,7.28,4.8s2.4,6.16,2.4,9.68v1.92c0,5.68-1.52,10-3.84,12.4-2.08,2.16-5.76,3.68-10.4,3.68-5.68,0-9.36-2.32-11.2-4.88-2.56-3.44-2.56-8.72-2.56-9.44v-1.84h8V151a8.54,8.54,0,0,0,1.28,5,5.48,5.48,0,0,0,4.4,1.84c3,0,4.4-1.2,5-2,1.2-1.52,1.28-3.84,1.28-5.52V148.2c0-1.92-.24-4.32-1.28-5.76a8.2,8.2,0,0,0-3.84-2.48l-5.84-2.08c-2.88-1-5.76-2.48-7.36-6.24a20.05,20.05,0,0,1-1.2-8.16v-1.6a14.2,14.2,0,0,1,4.16-10.4c2.64-2.56,6-3.44,9.68-3.44,8,0,13.36,5.2,13.36,14.48v1.84h-8Z" transform="translate(-13.48 -108.04)"/><path class="cls-1" d="M1089.06,122.84a8.38,8.38,0,0,0-1.36-5.12,5.06,5.06,0,0,0-4.24-1.84,5.34,5.34,0,0,0-3.92,1.52c-1.52,1.6-1.68,3.84-1.68,5.68,0,1.52.24,4.32,1.28,5.84a7.38,7.38,0,0,0,3.68,2.48l4.88,1.76c2.4.88,5.2,1.92,7.28,4.8s2.4,6.16,2.4,9.68v1.92c0,5.68-1.52,10-3.84,12.4-2.08,2.16-5.76,3.68-10.4,3.68-5.68,0-9.36-2.32-11.2-4.88-2.56-3.44-2.56-8.72-2.56-9.44v-1.84h8V151a8.54,8.54,0,0,0,1.28,5,5.48,5.48,0,0,0,4.4,1.84c3,0,4.4-1.2,5-2,1.2-1.52,1.28-3.84,1.28-5.52V148.2c0-1.92-.24-4.32-1.28-5.76a8.2,8.2,0,0,0-3.84-2.48l-5.84-2.08c-2.88-1-5.76-2.48-7.36-6.24a20.05,20.05,0,0,1-1.2-8.16v-1.6a14.2,14.2,0,0,1,4.16-10.4c2.64-2.56,6-3.44,9.68-3.44,8,0,13.36,5.2,13.36,14.48v1.84h-8Z" transform="translate(-13.48 -108.04)"/><path class="cls-1" d="M1140.42,108.84v7.6h-9.92v48.4h-8v-48.4h-9.92v-7.6Z" transform="translate(-13.48 -108.04)"/><path class="cls-1" d="M1156.5,123.56c0-4.24.32-8.32,4.16-11.92a15.25,15.25,0,0,1,19.68,0c3.84,3.6,4.16,7.68,4.16,11.92v26.56c0,4.24-.32,8.32-4.16,11.92a15.25,15.25,0,0,1-19.68,0c-3.84-3.6-4.16-7.68-4.16-11.92Zm20-1.2a6.23,6.23,0,0,0-1.68-4.88,6.63,6.63,0,0,0-8.64,0,6.23,6.23,0,0,0-1.68,4.88v29a6.23,6.23,0,0,0,1.68,4.88,6.63,6.63,0,0,0,8.64,0,6.23,6.23,0,0,0,1.68-4.88Z" transform="translate(-13.48 -108.04)"/><path class="cls-1" d="M1216.26,108.84c4.08,0,10-.24,13.76,4.4,1.84,2.24,3,5.6,3,9.76v4.24a14,14,0,0,1-3,8.88,11.13,11.13,0,0,1-4.24,2.88l8.8,25.84h-8.32l-7.76-24.16h-4.72v24.16h-8v-56Zm-2.48,24.64h4.56a6.77,6.77,0,0,0,5-1.84c1.6-1.52,1.68-2.88,1.68-5v-4a7.46,7.46,0,0,0-1.84-5.12c-1.6-1.6-3.52-1.44-5.2-1.44h-4.16Z" transform="translate(-13.48 -108.04)"/><path class="cls-1" d="M1266.82,141.24v23.6h-8V141l-11.76-32.16h8.8l7,22.24h.48l6.8-22.24h8.48Z" transform="translate(-13.48 -108.04)"/><path class="cls-1" d="M1296.42,156v8.8h-8.8V156Z" transform="translate(-13.48 -108.04)"/><path class="cls-1" d="M1021.34,152.92H1000.6l-5.31,12.88h-8l24.17-56.48,23,56.48h-8Zm-3-7.68-7.21-18.08-7.49,18.08Z" transform="translate(-13.48 -108.04)"/></svg>