<?xml version="1.0" encoding="utf-8"?>
<!-- Generator: Adobe Illustrator 25.2.0, SVG Export Plug-In . SVG Version: 6.00 Build 0)  -->
<svg version="1.1" xmlns="http://www.w3.org/2000/svg" xmlns:xlink="http://www.w3.org/1999/xlink" x="0px" y="0px"
	 viewBox="0 0 398.89 78.33" style="enable-background:new 0 0 398.89 78.33;" xml:space="preserve">
<style type="text/css">
	.st0{display:none;}
	.st1{display:inline;fill:#00B2E3;}
	.st2{display:inline;}
	.st3{fill:#FFFFFF;}
	.st4{fill:#54565A;}
</style>
<g id="PrimaryLogo" class="st0">
	<polygon class="st1" points="201.42,77.83 0.86,77.83 31.04,0.83 231.6,0.83 	"/>
	<g class="st2">
		<path class="st3" d="M56.19,57.52H41.12V21.53h14.46c7.03,0,11.12,3.94,11.12,10.11c0,3.99-2.63,6.57-4.45,7.43
			c2.17,1.01,4.95,3.29,4.95,8.09C67.21,53.88,62.61,57.52,56.19,57.52z M55.02,27.8h-6.88v8.29h6.88c2.98,0,4.65-1.67,4.65-4.15
			S58.01,27.8,55.02,27.8z M55.48,42.41h-7.33v8.85h7.33c3.18,0,4.7-2.02,4.7-4.45C60.18,44.38,58.66,42.41,55.48,42.41z"/>
		<path class="st3" d="M84.49,57.52V21.53h7.03v29.72h16.33v6.27H84.49z"/>
		<path class="st3" d="M135.75,57.83c-7.38,0-13.24-5-13.24-12.64V21.53h7.03v23.41c0,4.15,2.43,6.62,6.22,6.62
			c3.79,0,6.27-2.48,6.27-6.62V21.53h6.98v23.66C148.99,52.82,143.13,57.83,135.75,57.83z"/>
		<path class="st3" d="M166.93,57.52V21.53h23.71v6.27h-16.68v8.44h14.21v6.27h-14.21v8.75h16.68v6.27H166.93z"/>
	</g>
	<g class="st2">
		<path class="st4" d="M256.32,43.98h-6.93v13.55h-7.03V21.53h13.95c7.43,0,11.88,5.11,11.88,11.22
			C268.2,38.87,263.75,43.98,256.32,43.98z M255.97,27.8h-6.57v9.86h6.57c3.18,0,5.21-1.97,5.21-4.9S259.15,27.8,255.97,27.8z"/>
		<path class="st4" d="M306.01,53.88c-2.53,2.53-5.61,3.94-9.71,3.94s-7.23-1.42-9.76-3.94c-3.64-3.64-3.54-8.14-3.54-14.36
			s-0.1-10.72,3.54-14.36c2.53-2.53,5.66-3.94,9.76-3.94s7.18,1.42,9.71,3.94c3.64,3.64,3.59,8.14,3.59,14.36
			S309.65,50.24,306.01,53.88z M300.8,29.42c-1.01-1.16-2.58-1.92-4.5-1.92c-1.92,0-3.54,0.76-4.55,1.92
			c-1.37,1.52-1.72,3.18-1.72,10.11s0.35,8.59,1.72,10.11c1.01,1.16,2.63,1.92,4.55,1.92c1.92,0,3.49-0.76,4.5-1.92
			c1.36-1.52,1.77-3.18,1.77-10.11S302.17,30.93,300.8,29.42z"/>
		<path class="st4" d="M348.17,57.52l-14.26-22.09v22.09h-7.03V21.53h6.27l14.26,22.04V21.53h7.03v35.99H348.17z"/>
		<path class="st4" d="M386.68,42.76v14.76h-6.98V42.76l-10.82-21.23h7.63l6.72,14.51l6.62-14.51h7.63L386.68,42.76z"/>
	</g>
</g>
<g id="SecondaryLogo" class="st0">
	<polygon class="st1" points="201.42,77.83 0.86,77.83 31.04,0.83 231.6,0.83 	"/>
	<g class="st2">
		<path class="st3" d="M56.19,57.52H41.12V21.53h14.46c7.03,0,11.12,3.94,11.12,10.11c0,3.99-2.63,6.57-4.45,7.43
			c2.17,1.01,4.95,3.29,4.95,8.09C67.21,53.88,62.61,57.52,56.19,57.52z M55.02,27.8h-6.88v8.29h6.88c2.98,0,4.65-1.67,4.65-4.15
			S58.01,27.8,55.02,27.8z M55.48,42.41h-7.33v8.85h7.33c3.18,0,4.7-2.02,4.7-4.45C60.18,44.38,58.66,42.41,55.48,42.41z"/>
		<path class="st3" d="M84.49,57.52V21.53h7.03v29.72h16.33v6.27H84.49z"/>
		<path class="st3" d="M135.75,57.83c-7.38,0-13.24-5-13.24-12.64V21.53h7.03v23.41c0,4.15,2.43,6.62,6.22,6.62
			c3.79,0,6.27-2.48,6.27-6.62V21.53h6.98v23.66C148.99,52.82,143.13,57.83,135.75,57.83z"/>
		<path class="st3" d="M166.93,57.52V21.53h23.71v6.27h-16.68v8.44h14.21v6.27h-14.21v8.75h16.68v6.27H166.93z"/>
	</g>
	<g class="st2">
		<path class="st3" d="M256.32,43.98h-6.93v13.55h-7.03V21.53h13.95c7.43,0,11.88,5.11,11.88,11.22
			C268.2,38.87,263.75,43.98,256.32,43.98z M255.97,27.8h-6.57v9.86h6.57c3.18,0,5.21-1.97,5.21-4.9S259.15,27.8,255.97,27.8z"/>
		<path class="st3" d="M306.01,53.88c-2.53,2.53-5.61,3.94-9.71,3.94s-7.23-1.42-9.76-3.94c-3.64-3.64-3.54-8.14-3.54-14.36
			s-0.1-10.72,3.54-14.36c2.53-2.53,5.66-3.94,9.76-3.94s7.18,1.42,9.71,3.94c3.64,3.64,3.59,8.14,3.59,14.36
			S309.65,50.24,306.01,53.88z M300.8,29.42c-1.01-1.16-2.58-1.92-4.5-1.92c-1.92,0-3.54,0.76-4.55,1.92
			c-1.37,1.52-1.72,3.18-1.72,10.11s0.35,8.59,1.72,10.11c1.01,1.16,2.63,1.92,4.55,1.92c1.92,0,3.49-0.76,4.5-1.92
			c1.36-1.52,1.77-3.18,1.77-10.11S302.17,30.93,300.8,29.42z"/>
		<path class="st3" d="M348.17,57.52l-14.26-22.09v22.09h-7.03V21.53h6.27l14.26,22.04V21.53h7.03v35.99H348.17z"/>
		<path class="st3" d="M386.68,42.76v14.76h-6.98V42.76l-10.82-21.23h7.63l6.72,14.51l6.62-14.51h7.63L386.68,42.76z"/>
	</g>
</g>
<g id="allWhiteLogo">
	<g>
		<path class="st3" d="M59.67,31.94c0-2.48-1.67-4.15-4.65-4.15h-6.88v8.29h6.88C58.01,36.09,59.67,34.42,59.67,31.94z"/>
		<path class="st3" d="M55.48,42.41h-7.33v8.85h7.33c3.18,0,4.7-2.02,4.7-4.45C60.18,44.38,58.66,42.41,55.48,42.41z"/>
		<path class="st3" d="M31.04,0.83L0.86,77.83h200.56L231.6,0.83H31.04z M56.19,57.52H41.12V21.53h14.46
			c7.03,0,11.12,3.94,11.12,10.11c0,3.99-2.63,6.57-4.45,7.43c2.17,1.01,4.95,3.29,4.95,8.09C67.21,53.88,62.61,57.52,56.19,57.52z
			 M107.85,57.52H84.49V21.53h7.03v29.72h16.33V57.52z M148.99,45.19c0,7.63-5.86,12.64-13.25,12.64c-7.38,0-13.24-5-13.24-12.64
			V21.53h7.03v23.41c0,4.15,2.43,6.62,6.22,6.62c3.79,0,6.27-2.48,6.27-6.62V21.53h6.98V45.19z M190.64,27.8h-16.68v8.44h14.21v6.27
			h-14.21v8.75h16.68v6.27h-23.71V21.53h23.71V27.8z"/>
	</g>
	<g>
		<path class="st3" d="M256.32,43.98h-6.93v13.55h-7.03V21.53h13.95c7.43,0,11.88,5.11,11.88,11.22
			C268.2,38.87,263.75,43.98,256.32,43.98z M255.97,27.8h-6.57v9.86h6.57c3.18,0,5.21-1.97,5.21-4.9S259.15,27.8,255.97,27.8z"/>
		<path class="st3" d="M306.01,53.88c-2.53,2.53-5.61,3.94-9.71,3.94s-7.23-1.42-9.76-3.94c-3.64-3.64-3.54-8.14-3.54-14.36
			s-0.1-10.72,3.54-14.36c2.53-2.53,5.66-3.94,9.76-3.94s7.18,1.42,9.71,3.94c3.64,3.64,3.59,8.14,3.59,14.36
			S309.65,50.24,306.01,53.88z M300.8,29.42c-1.01-1.16-2.58-1.92-4.5-1.92c-1.92,0-3.54,0.76-4.55,1.92
			c-1.37,1.52-1.72,3.18-1.72,10.11s0.35,8.59,1.72,10.11c1.01,1.16,2.63,1.92,4.55,1.92c1.92,0,3.49-0.76,4.5-1.92
			c1.36-1.52,1.77-3.18,1.77-10.11S302.17,30.93,300.8,29.42z"/>
		<path class="st3" d="M348.17,57.52l-14.26-22.09v22.09h-7.03V21.53h6.27l14.26,22.04V21.53h7.03v35.99H348.17z"/>
		<path class="st3" d="M386.68,42.76v14.76h-6.98V42.76l-10.82-21.23h7.63l6.72,14.51l6.62-14.51h7.63L386.68,42.76z"/>
	</g>
</g>
</svg>
